<svg xmlns="http://www.w3.org/2000/svg" width="26" height="26" viewBox="0 0 26 26">
  <path id="合体_47" data-name="合体 47" d="M0,12.468a12.5,12.5,0,1,1,21.582,8.62l-.069.069A3.643,3.643,0,0,1,19,22.194a3.718,3.718,0,0,1-3.715-3.725v-.628a6,6,0,0,1-2.787.684A6.024,6.024,0,0,1,18.526,12.5,6.025,6.025,0,0,1,12.5,6.474a6.006,6.006,0,0,1,2.787.684V6.79a.315.315,0,0,1,.315-.315H18.21a.315.315,0,0,1,.315.315V18.512a.443.443,0,0,0,.432.444.421.421,0,0,0,.3-.121A9.263,9.263,0,1,0,12.5,21.762a9.321,9.321,0,0,0,2.1-.239.314.314,0,0,1,.376.225l.674,2.521a.316.316,0,0,1-.232.388A12.508,12.508,0,0,1,0,12.468Zm6.475.032A6.025,6.025,0,0,1,12.5,18.525,6.025,6.025,0,0,1,6.475,12.5ZM12.5,6.474A6.026,6.026,0,0,1,6.475,12.5,6.026,6.026,0,0,1,12.5,6.474Z" transform="translate(0.5 0.5)" fill="#434038" stroke="rgba(0,0,0,0)" stroke-miterlimit="10" stroke-width="1"/>
</svg>
