<svg xmlns="http://www.w3.org/2000/svg" width="25" height="25" viewBox="0 0 25 25">
  <path id="合体_40" data-name="合体 40" d="M7.31,25A7.317,7.317,0,0,1,0,17.69V7.308A7.317,7.317,0,0,1,7.31,0H17.692A7.316,7.316,0,0,1,25,7.308V17.69A7.317,7.317,0,0,1,17.692,25ZM2.331,7.308V17.69A4.983,4.983,0,0,0,7.31,22.669H17.692a4.982,4.982,0,0,0,4.977-4.979V7.308a4.982,4.982,0,0,0-4.977-4.977H7.31A4.982,4.982,0,0,0,2.331,7.308ZM6.039,12.5A6.462,6.462,0,1,1,12.5,18.963,6.47,6.47,0,0,1,6.039,12.5Zm2.331,0A4.131,4.131,0,1,0,12.5,8.37,4.134,4.134,0,0,0,8.37,12.5Zm10.454-5.15a1.557,1.557,0,1,1,.356.041A1.56,1.56,0,0,1,18.824,7.351Z" fill="#434038"/>
</svg>
