<svg xmlns="http://www.w3.org/2000/svg" width="26.238" height="25" viewBox="0 0 26.238 25">
  <path id="前面オブジェクトで型抜き_22" data-name="前面オブジェクトで型抜き 22" d="M12.4,25a.437.437,0,0,1-.353-.137.961.961,0,0,1-.067-.728l.005-.029c.033-.2.187-1.123.187-1.123a2.528,2.528,0,0,0-.042-1.186c-.145-.359-.709-.55-1.156-.647a14.059,14.059,0,0,1-7.85-3.591A9.565,9.565,0,0,1,0,10.646C0,4.776,5.885,0,13.12,0S26.238,4.776,26.238,10.646A9.521,9.521,0,0,1,23.426,17.2c-2.724,3.136-8.81,6.986-10.306,7.617A1.982,1.982,0,0,1,12.4,25ZM18.193,7.81a.256.256,0,0,0-.177.072l-.006.007a.249.249,0,0,0-.071.175v5.717a.251.251,0,0,0,.071.176l0,0a.256.256,0,0,0,.179.074H21.87a.255.255,0,0,0,.255-.255v-.921a.256.256,0,0,0-.255-.256h-2.5v-.966h2.5a.256.256,0,0,0,.255-.256v-.92a.256.256,0,0,0-.255-.256h-2.5V9.241h2.5a.256.256,0,0,0,.255-.256v-.92a.256.256,0,0,0-.255-.256H18.193Zm-5.157,2.576,0,0,2.62,3.54a.261.261,0,0,0,.066.063l.018.012.007,0,.012.006.013.005.008,0,.017.005a.267.267,0,0,0,.069.01h.921a.255.255,0,0,0,.255-.255V8.065a.255.255,0,0,0-.255-.255h-.921a.255.255,0,0,0-.255.255v3.4l-2.62-3.538a.166.166,0,0,0-.02-.026l-.017-.018,0,0,0,0-.009-.007-.006-.005-.013-.01-.009,0-.006,0-.006,0-.009,0-.007,0-.007,0-.009,0-.008,0-.007,0-.01,0-.014,0H11.86a.256.256,0,0,0-.257.255v5.717a.256.256,0,0,0,.257.255h.92a.255.255,0,0,0,.256-.255v-3.4ZM9.534,7.81a.255.255,0,0,0-.256.255v5.717a.255.255,0,0,0,.256.255h.92a.255.255,0,0,0,.256-.255V8.065a.255.255,0,0,0-.256-.255Zm-4.974,0a.255.255,0,0,0-.256.255v5.717a.251.251,0,0,0,.071.176l0,0a.256.256,0,0,0,.179.074H8.236a.255.255,0,0,0,.255-.255v-.921a.256.256,0,0,0-.255-.256h-2.5V8.065a.255.255,0,0,0-.256-.255Z" fill="#434038"/>
</svg>
