<svg xmlns="http://www.w3.org/2000/svg" width="19.381" height="25" viewBox="0 0 19.381 25">
  <path id="パス_1592" data-name="パス 1592" d="M6.571,9.421A4.172,4.172,0,0,1,3.291,6.583C1.9,3.193,4.674,0,4.674,0A22.738,22.738,0,0,0,6.5,4.858a25.62,25.62,0,0,0,2.4,3.7,4.891,4.891,0,0,1,1.542-.245,5.822,5.822,0,0,1,1.6.232,8.319,8.319,0,0,1,1.15-4.98A11.243,11.243,0,0,1,17.938.012s1.052,4.27-.232,6.546a8.878,8.878,0,0,1-3.047,3.316,4.6,4.6,0,0,1,1.064,2.68c.11,1.6-.294,2.631.073,4.209.33,1.395.587,2.068,1.3,2.459a8.782,8.782,0,0,0,2.288.661,2.38,2.38,0,0,1-.477,1,1.7,1.7,0,0,1-1.346.807s.2.746-.8,1.542a2.267,2.267,0,0,1-1.946.563,1.776,1.776,0,0,1-1.309,1.1,3.281,3.281,0,0,1-1.664-.012,6.487,6.487,0,0,0-.233-3.548c-1.26-3.793-2.7-2.068-5.787-2.655A8.864,8.864,0,0,1,0,14.414a7.115,7.115,0,0,0,3.524-1.591c.991-.93,1.077-1.75,2.068-2.716A3.326,3.326,0,0,1,6.571,9.421ZM5.849,14.6a.872.872,0,0,1-.22.355,3.622,3.622,0,0,1-.453.367,1.568,1.568,0,0,0,.881-.159.725.725,0,0,0,.294-.306,3.523,3.523,0,0,0,.367.1,1.508,1.508,0,0,0,.355.024.809.809,0,0,1-.2.343,3.534,3.534,0,0,1-.428.355,1.49,1.49,0,0,0,1.015-.281,1.057,1.057,0,0,0,.318-.416,6.557,6.557,0,0,0,1.591-.746c1.016-.673,1.028-1.248,1.028-1.248a7.907,7.907,0,0,1-2.937,1.162A5.316,5.316,0,0,1,5.188,13.7,1.517,1.517,0,0,0,5.849,14.6Z" fill="#434038"/>
</svg>
