<svg xmlns="http://www.w3.org/2000/svg" width="21.824" height="25" viewBox="0 0 21.824 25">
  <path id="パス_1591" data-name="パス 1591" d="M20.375,5.675a5.815,5.815,0,0,1-1.11-.406c-.067-.033-.136-.062-.2-.1-.087-.047-.171-.1-.256-.152s-.144-.084-.213-.13-.156-.111-.233-.168-.14-.1-.207-.155-.143-.121-.213-.184-.132-.116-.195-.177-.13-.132-.193-.2-.121-.129-.179-.2-.118-.143-.174-.216A5.832,5.832,0,0,1,15.961,0h-4.4V17.019A3.583,3.583,0,0,1,7.981,20.6c-.11,0-.219-.007-.326-.016l-.079-.008c-.106-.012-.211-.027-.314-.048l-.014,0c-.1-.021-.2-.047-.291-.075l-.077-.024c-.1-.031-.193-.066-.287-.105l-.029-.013c-.085-.037-.168-.077-.249-.12l-.075-.04c-.086-.048-.171-.1-.253-.153l-.04-.029c-.07-.048-.138-.1-.2-.153l-.07-.057c-.073-.062-.145-.126-.213-.194-.016-.015-.03-.032-.045-.047q-.083-.086-.161-.177l-.061-.073c-.06-.074-.117-.15-.17-.228-.014-.02-.026-.042-.04-.062a3.58,3.58,0,0,1,3-5.539,4,4,0,0,1,1.128.161V9.118a8.056,8.056,0,0,0-1.128-.079l-.118,0h0l-.105,0c-.087,0-.175.005-.261.01l-.143.011c-.087.007-.174.014-.26.023l-.138.018c-.086.011-.172.023-.258.036l-.135.024c-.085.015-.17.031-.255.049l-.131.03c-.084.019-.168.039-.252.061L5.8,9.344c-.083.023-.165.047-.247.073l-.126.043c-.081.027-.162.055-.241.085l-.123.048c-.079.031-.158.062-.236.1L4.7,9.744c-.077.035-.154.069-.23.107l-.119.061c-.074.038-.148.076-.221.116-.04.022-.078.045-.117.067-.072.041-.143.082-.214.126-.038.024-.076.049-.114.073-.069.044-.138.088-.206.135l-.114.081c-.065.047-.131.093-.2.142-.038.029-.075.059-.112.088-.063.049-.125.1-.186.149-.037.031-.073.063-.109.094-.06.052-.119.1-.178.156-.036.033-.071.068-.107.1-.056.053-.113.107-.167.162-.036.036-.07.074-.105.111-.052.055-.105.109-.156.166-.035.038-.068.078-.1.118-.049.057-.1.113-.147.171-.034.041-.065.084-.1.125-.046.058-.092.116-.136.175-.033.044-.063.089-.095.134s-.085.118-.125.178-.06.094-.091.142-.078.12-.115.181-.058.1-.087.151-.07.12-.1.182-.054.106-.081.158-.064.122-.093.184-.05.111-.076.167-.056.122-.082.185-.047.119-.07.178-.049.121-.071.182-.042.125-.064.187-.042.121-.061.182-.037.129-.055.193-.036.122-.052.184-.032.137-.047.206-.029.118-.041.178-.027.148-.04.223c-.01.056-.021.112-.03.169-.012.079-.021.16-.031.24-.006.053-.014.1-.02.158-.009.091-.015.182-.021.274,0,.043-.008.086-.01.13q-.01.2-.01.409c0,.214.011.426.028.636,0,.034,0,.069.008.1q.028.3.077.594c.006.037.013.073.02.11.036.2.078.395.129.588,0,.019.011.036.016.055q.077.287.175.565c.006.018.012.036.018.053.068.189.144.373.225.555.013.029.026.058.039.087q.125.269.267.527l.036.063a7.987,7.987,0,0,0,.685,1.016c.009.011.017.024.026.035l0,0a7.979,7.979,0,0,0,14.207-4.989V8.012A9.245,9.245,0,0,0,21.824,10.1V5.863a5.852,5.852,0,0,1-1.45-.188" fill="#434038"/>
</svg>
